# xmcd
#
# Track frame offsets: 
#        150
#        21829
#        40496
#        60061
#        77568
#        89464
#        107287
#        131364
#        149239
#        171974
#
# Disc length: 2858 seconds
#
# Revision: 4
# Processed by: cddbd v1.5.2PL0 Copyright (c) Steve Scherf et al.
# Submitted via: ExactAudioCopy v1.3
#
DISCID=7c0b280a
DTITLE=Lana Del Rey - Paradise (Target Edition)
DYEAR=2012
DGENRE=Pop
TTITLE0=Ride
TTITLE1=American
TTITLE2=Cola
TTITLE3=Body Electric
TTITLE4=Blue Velvet
TTITLE5=Gods And Monsters
TTITLE6=Yayo
TTITLE7=Bel Air
TTITLE8=Blue Velvet (Penguin Prison Remix)
TTITLE9=Blue Velvet (Lindstrøm Remix)
EXTD=
EXTT0=
EXTT1=
EXTT2=
EXTT3=
EXTT4=
EXTT5=
EXTT6=
EXTT7=
EXTT8=
EXTT9=
PLAYORDER=
